<svg xmlns="http://www.w3.org/2000/svg" width="60" height="60" viewBox="0 0 60 60">
  <g id="entrance" transform="translate(-2 -2)">
    <path id="Path_254" data-name="Path 254" d="M20.857,12.143A2.143,2.143,0,0,0,18.714,10H10.143A2.143,2.143,0,0,0,8,12.143V22.857A2.143,2.143,0,0,0,10.143,25h8.571a2.143,2.143,0,0,0,2.143-2.143Zm-4.286,8.571H12.286V14.286h4.286Z" transform="translate(6.857 9.143)" fill="#0067a0"/>
    <path id="Path_255" data-name="Path 255" d="M18.714,18H10.143A2.143,2.143,0,0,0,8,20.143V30.857A2.143,2.143,0,0,0,10.143,33h8.571a2.143,2.143,0,0,0,2.143-2.143V20.143A2.143,2.143,0,0,0,18.714,18ZM16.571,28.714H12.286V22.286h4.286Z" transform="translate(6.857 18.286)" fill="#0067a0"/>
    <path id="Path_256" data-name="Path 256" d="M17.143,10A2.143,2.143,0,0,0,15,12.143V22.857A2.143,2.143,0,0,0,17.143,25h15a2.143,2.143,0,0,0,2.143-2.143V12.143A2.143,2.143,0,0,0,32.143,10ZM30,20.714H19.286V14.286H30Z" transform="translate(14.857 9.143)" fill="#0067a0"/>
    <path id="Path_257" data-name="Path 257" d="M59.857,57.714H55.571V23.429a2.143,2.143,0,0,0-4.286,0V57.714H49.143V38.429A2.143,2.143,0,0,0,47,36.286H32a2.143,2.143,0,0,0-2.143,2.143V57.714H12.714V17h45a2.143,2.143,0,0,0,1.843-3.236L53.129,3.05A2.143,2.143,0,0,0,51.286,2H25.571a2.143,2.143,0,0,0,0,4.286H50.064l3.857,6.429H10.079l3.857-6.429H17A2.143,2.143,0,0,0,17,2H12.714a2.143,2.143,0,0,0-1.843,1.05L4.443,13.764A2.143,2.143,0,0,0,6.286,17H8.429V57.714H4.143a2.143,2.143,0,1,0,0,4.286H59.857a2.143,2.143,0,0,0,0-4.286Zm-25.714,0V40.571H44.857V57.714Z" fill="#0067a0"/>
  </g>
</svg>
