<svg xmlns="http://www.w3.org/2000/svg" width="51.309" height="60" viewBox="0 0 51.309 60">
  <g id="home" transform="translate(-4.084 -1.982)">
    <path id="Path_252" data-name="Path 252" d="M54.313,38.768l-7.581-4.883V18.724l3.148,2.141a2.141,2.141,0,1,0,2.441-3.512L30.907,2.364a2.141,2.141,0,0,0-2.441,0L7.052,17.354a2.141,2.141,0,0,0,2.441,3.512l2.977-2.1v6.81a2.141,2.141,0,1,0,4.283,0V15.769L29.6,6.775,42.45,15.726v15.44L30.843,23.778a2.141,2.141,0,0,0-2.313,0L4.974,38.768a2.141,2.141,0,0,0,2.313,3.6l.9-.621v18.1a2.141,2.141,0,0,0,2.141,2.141H48.874a2.141,2.141,0,0,0,2.141-2.141V46.991a2.141,2.141,0,1,0-4.283,0V57.7H38.167V51.274a8.566,8.566,0,1,0-17.132,0V57.7H12.469V39.025L29.6,28.125,52,42.366a2.141,2.141,0,1,0,2.313-3.6Zm-29,12.506a4.283,4.283,0,1,1,8.566,0V57.7H25.318Z" transform="translate(0 0)" fill="#0067a0"/>
    <path id="Path_253" data-name="Path 253" d="M20.424,11.283a2.141,2.141,0,1,0,0-4.283H16.141a2.141,2.141,0,1,0,0,4.283Z" transform="translate(11.318 5.728)" fill="#0067a0"/>
  </g>
</svg>
